<svg xmlns="http://www.w3.org/2000/svg" width="256" height="256" viewBox="0 0 256 256">
  <!-- Background -->
  <rect width="256" height="256" rx="42" ry="42" fill="#0078d7" />
  
  <!-- Document Base -->
  <rect x="60" y="48" width="100" height="132" rx="8" ry="8" fill="#ffffff" />
  <rect x="68" y="80" width="84" height="8" rx="2" ry="2" fill="#e0e0e0" />
  <rect x="68" y="100" width="84" height="8" rx="2" ry="2" fill="#e0e0e0" />
  <rect x="68" y="120" width="60" height="8" rx="2" ry="2" fill="#e0e0e0" />
  
  <!-- Gear (Main) -->
  <g transform="translate(148, 148)">
    <circle cx="0" cy="0" r="48" fill="#505050" />
    <circle cx="0" cy="0" r="36" fill="#707070" />
    <circle cx="0" cy="0" r="16" fill="#505050" />
    <circle cx="0" cy="0" r="8" fill="#ffffff" />
    
    <!-- Gear teeth -->
    <g fill="#505050">
      <!-- 12 teeth around the gear -->
      <rect x="-6" y="-54" width="12" height="16" rx="2" ry="2" />
      <rect x="-6" y="38" width="12" height="16" rx="2" ry="2" />
      
      <rect x="-54" y="-6" width="16" height="12" rx="2" ry="2" />
      <rect x="38" y="-6" width="16" height="12" rx="2" ry="2" />
      
      <!-- Diagonal teeth -->
      <g transform="rotate(45)">
        <rect x="-6" y="-54" width="12" height="16" rx="2" ry="2" />
        <rect x="-6" y="38" width="12" height="16" rx="2" ry="2" />
        <rect x="-54" y="-6" width="16" height="12" rx="2" ry="2" />
        <rect x="38" y="-6" width="16" height="12" rx="2" ry="2" />
      </g>
      
      <g transform="rotate(90)">
        <rect x="-6" y="-54" width="12" height="16" rx="2" ry="2" />
        <rect x="-6" y="38" width="12" height="16" rx="2" ry="2" />
      </g>
    </g>
  </g>
  
  <!-- Small Gear -->
  <g transform="translate(80, 172)">
    <circle cx="0" cy="0" r="24" fill="#707070" />
    <circle cx="0" cy="0" r="18" fill="#909090" />
    <circle cx="0" cy="0" r="8" fill="#707070" />
    <circle cx="0" cy="0" r="4" fill="#ffffff" />
    
    <!-- Small gear teeth -->
    <g fill="#707070">
      <rect x="-4" y="-28" width="8" height="10" rx="2" ry="2" />
      <rect x="-4" y="18" width="8" height="10" rx="2" ry="2" />
      <rect x="-28" y="-4" width="10" height="8" rx="2" ry="2" />
      <rect x="18" y="-4" width="10" height="8" rx="2" ry="2" />
      
      <g transform="rotate(45)">
        <rect x="-4" y="-28" width="8" height="10" rx="2" ry="2" />
        <rect x="-4" y="18" width="8" height="10" rx="2" ry="2" />
        <rect x="-28" y="-4" width="10" height="8" rx="2" ry="2" />
        <rect x="18" y="-4" width="10" height="8" rx="2" ry="2" />
      </g>
    </g>
  </g>
</svg>
